<?xml version="1.0" encoding="utf-8"?>
<svg version="1.1" xmlns:xlink="http://www.w3.org/1999/xlink" width="40px" height="40px" xmlns="http://www.w3.org/2000/svg">
  <defs>
    <filter x="512px" y="847px" width="40px" height="40px" filterUnits="userSpaceOnUse" id="filter49">
      <feOffset dx="1" dy="1" in="SourceAlpha" result="shadowOffsetInner" />
      <feGaussianBlur stdDeviation="2.5" in="shadowOffsetInner" result="shadowGaussian" />
      <feComposite in2="shadowGaussian" operator="atop" in="SourceAlpha" result="shadowComposite" />
      <feColorMatrix type="matrix" values="0 0 0 0 0  0 0 0 0 0  0 0 0 0 0  0 0 0 0.698039215686274 0  " in="shadowComposite" />
    </filter>
    <g id="widget50">
      <path d="M 531 851  C 539.4 851  546 857.6  546 866  C 546 874.4  539.4 881  531 881  C 522.6 881  516 874.4  516 866  C 516 857.6  522.6 851  531 851  Z " fill-rule="nonzero" fill="#009dd9" stroke="none" />
      <path d="M 531 851.5  C 539.12 851.5  545.5 857.88  545.5 866  C 545.5 874.12  539.12 880.5  531 880.5  C 522.88 880.5  516.5 874.12  516.5 866  C 516.5 857.88  522.88 851.5  531 851.5  Z " stroke-width="1" stroke="#ffffff" fill="none" />
    </g>
  </defs>
  <g transform="matrix(1 0 0 1 -512 -847 )">
    <use xlink:href="#widget50" filter="url(#filter49)" />
    <use xlink:href="#widget50" />
  </g>
</svg>