<?xml version="1.0" encoding="utf-8"?>
<svg version="1.1" xmlns:xlink="http://www.w3.org/1999/xlink" width="33px" height="41px" xmlns="http://www.w3.org/2000/svg">
  <defs>
    <filter x="337px" y="885px" width="33px" height="41px" filterUnits="userSpaceOnUse" id="filter25">
      <feOffset dx="1" dy="1" in="SourceAlpha" result="shadowOffsetInner" />
      <feGaussianBlur stdDeviation="2.5" in="shadowOffsetInner" result="shadowGaussian" />
      <feComposite in2="shadowGaussian" operator="atop" in="SourceAlpha" result="shadowComposite" />
      <feColorMatrix type="matrix" values="0 0 0 0 0  0 0 0 0 0  0 0 0 0 0  0 0 0 0.698039215686274 0  " in="shadowComposite" />
    </filter>
    <g id="widget26">
      <path d="M 352.5 919.029855381312  C 348.1 911.652987926961  341.5 907.226867454351  341.5 899.85  C 341.5 896.005714285714  343.7 889.5  352.5 889.5  C 361.3 889.5  363.5 896.005714285714  363.5 899.85  C 363.5 907.226867454351  356.9 911.652987926961  352.5 919.029855381312  Z " fill-rule="nonzero" fill="#009dd9" stroke="none" />
      <path d="M 352.5 920  C 347.9 912.25  341 907.6  341 899.85  C 341 895.82  343.3 889  352.5 889  C 361.7 889  364 895.82  364 899.85  C 364 907.6  357.1 912.25  352.5 920  Z M 352.5 918.059710762623  C 356.7 911.055975853922  363 906.853734908701  363 899.85  C 363 896.191428571429  360.9 890  352.5 890  C 344.1 890  342 896.191428571429  342 899.85  C 342 906.853734908701  348.3 911.055975853922  352.5 918.059710762623  Z " fill-rule="nonzero" fill="#ffffff" stroke="none" />
    </g>
  </defs>
  <g transform="matrix(1 0 0 1 -337 -885 )">
    <use xlink:href="#widget26" filter="url(#filter25)" />
    <use xlink:href="#widget26" />
  </g>
</svg>