<?xml version="1.0" encoding="utf-8"?>
<svg version="1.1" xmlns:xlink="http://www.w3.org/1999/xlink" width="300px" height="300px" xmlns="http://www.w3.org/2000/svg">
  <g transform="matrix(1 0 0 1 -813 -417 )">
    <path d="M 963 417  C 1047 417  1113 483  1113 567  C 1113 651  1047 717  963 717  C 879 717  813 651  813 567  C 813 483  879 417  963 417  Z " fill-rule="nonzero" fill="#ffffff" stroke="none" />
    <path d="M 963 417.5  C 1046.72 417.5  1112.5 483.28  1112.5 567  C 1112.5 650.72  1046.72 716.5  963 716.5  C 879.28 716.5  813.5 650.72  813.5 567  C 813.5 483.28  879.28 417.5  963 417.5  Z " stroke-width="1" stroke="#797979" fill="none" />
  </g>
</svg>