<?xml version="1.0" encoding="utf-8"?>
<svg version="1.1" xmlns:xlink="http://www.w3.org/1999/xlink" width="28px" height="28px" xmlns="http://www.w3.org/2000/svg">
  <defs>
    <filter x="315px" y="192px" width="28px" height="28px" filterUnits="userSpaceOnUse" id="filter11">
      <feOffset dx="1" dy="1" in="SourceAlpha" result="shadowOffsetInner" />
      <feGaussianBlur stdDeviation="2.5" in="shadowOffsetInner" result="shadowGaussian" />
      <feComposite in2="shadowGaussian" operator="atop" in="SourceAlpha" result="shadowComposite" />
      <feColorMatrix type="matrix" values="0 0 0 0 0  0 0 0 0 0  0 0 0 0 0  0 0 0 0.698039215686274 0  " in="shadowComposite" />
    </filter>
    <g id="widget12">
      <path d="M 328 196  C 333.04 196  337 199.96  337 205  C 337 210.04  333.04 214  328 214  C 322.96 214  319 210.04  319 205  C 319 199.96  322.96 196  328 196  Z " fill-rule="nonzero" fill="#009dd9" stroke="none" />
      <path d="M 328 196.5  C 332.76 196.5  336.5 200.24  336.5 205  C 336.5 209.76  332.76 213.5  328 213.5  C 323.24 213.5  319.5 209.76  319.5 205  C 319.5 200.24  323.24 196.5  328 196.5  Z " stroke-width="1" stroke="#ffffff" fill="none" />
    </g>
  </defs>
  <g transform="matrix(1 0 0 1 -315 -192 )">
    <use xlink:href="#widget12" filter="url(#filter11)" />
    <use xlink:href="#widget12" />
  </g>
</svg>