<?xml version="1.0" encoding="utf-8"?>
<svg version="1.1" xmlns:xlink="http://www.w3.org/1999/xlink" width="114px" height="114px" xmlns="http://www.w3.org/2000/svg">
  <defs>
    <filter x="1256px" y="156px" width="114px" height="114px" filterUnits="userSpaceOnUse" id="filter35">
      <feOffset dx="1" dy="1" in="SourceAlpha" result="shadowOffsetInner" />
      <feGaussianBlur stdDeviation="2.5" in="shadowOffsetInner" result="shadowGaussian" />
      <feComposite in2="shadowGaussian" operator="atop" in="SourceAlpha" result="shadowComposite" />
      <feColorMatrix type="matrix" values="0 0 0 0 0  0 0 0 0 0  0 0 0 0 0  0 0 0 0.698039215686274 0  " in="shadowComposite" />
    </filter>
    <g id="widget36">
      <path d="M 1312 160  C 1341.12 160  1364 182.88  1364 212  C 1364 241.12  1341.12 264  1312 264  C 1282.88 264  1260 241.12  1260 212  C 1260 182.88  1282.88 160  1312 160  Z " fill-rule="nonzero" fill="#c23c33" stroke="none" />
      <path d="M 1312 160.5  C 1340.84 160.5  1363.5 183.16  1363.5 212  C 1363.5 240.84  1340.84 263.5  1312 263.5  C 1283.16 263.5  1260.5 240.84  1260.5 212  C 1260.5 183.16  1283.16 160.5  1312 160.5  Z " stroke-width="1" stroke="#ffffff" fill="none" />
    </g>
  </defs>
  <g transform="matrix(1 0 0 1 -1256 -156 )">
    <use xlink:href="#widget36" filter="url(#filter35)" />
    <use xlink:href="#widget36" />
  </g>
</svg>