<?xml version="1.0" encoding="utf-8"?>
<svg version="1.1" xmlns:xlink="http://www.w3.org/1999/xlink" width="81px" height="81px" xmlns="http://www.w3.org/2000/svg">
  <defs>
    <filter x="108px" y="268px" width="81px" height="81px" filterUnits="userSpaceOnUse" id="filter1">
      <feOffset dx="1" dy="1" in="SourceAlpha" result="shadowOffsetInner" />
      <feGaussianBlur stdDeviation="2.5" in="shadowOffsetInner" result="shadowGaussian" />
      <feComposite in2="shadowGaussian" operator="atop" in="SourceAlpha" result="shadowComposite" />
      <feColorMatrix type="matrix" values="0 0 0 0 0  0 0 0 0 0  0 0 0 0 0  0 0 0 0.698039215686274 0  " in="shadowComposite" />
    </filter>
    <g id="widget2">
      <path d="M 147.5 272  C 167.38 272  183 287.62  183 307.5  C 183 327.38  167.38 343  147.5 343  C 127.62 343  112 327.38  112 307.5  C 112 287.62  127.62 272  147.5 272  Z " fill-rule="nonzero" fill="#009dd9" stroke="none" />
      <path d="M 147.5 272.5  C 167.1 272.5  182.5 287.9  182.5 307.5  C 182.5 327.1  167.1 342.5  147.5 342.5  C 127.9 342.5  112.5 327.1  112.5 307.5  C 112.5 287.9  127.9 272.5  147.5 272.5  Z " stroke-width="1" stroke="#ffffff" fill="none" />
    </g>
  </defs>
  <g transform="matrix(1 0 0 1 -108 -268 )">
    <use xlink:href="#widget2" filter="url(#filter1)" />
    <use xlink:href="#widget2" />
  </g>
</svg>