<?xml version="1.0" encoding="utf-8"?>
<svg version="1.1" xmlns:xlink="http://www.w3.org/1999/xlink" width="28px" height="28px" xmlns="http://www.w3.org/2000/svg">
  <defs>
    <filter x="315px" y="251px" width="28px" height="28px" filterUnits="userSpaceOnUse" id="filter15">
      <feOffset dx="1" dy="1" in="SourceAlpha" result="shadowOffsetInner" />
      <feGaussianBlur stdDeviation="2.5" in="shadowOffsetInner" result="shadowGaussian" />
      <feComposite in2="shadowGaussian" operator="atop" in="SourceAlpha" result="shadowComposite" />
      <feColorMatrix type="matrix" values="0 0 0 0 0  0 0 0 0 0  0 0 0 0 0  0 0 0 0.698039215686274 0  " in="shadowComposite" />
    </filter>
    <g id="widget16">
      <path d="M 328 255  C 333.04 255  337 258.96  337 264  C 337 269.04  333.04 273  328 273  C 322.96 273  319 269.04  319 264  C 319 258.96  322.96 255  328 255  Z " fill-rule="nonzero" fill="#0bf0c4" stroke="none" />
      <path d="M 328 255.5  C 332.76 255.5  336.5 259.24  336.5 264  C 336.5 268.76  332.76 272.5  328 272.5  C 323.24 272.5  319.5 268.76  319.5 264  C 319.5 259.24  323.24 255.5  328 255.5  Z " stroke-width="1" stroke="#ffffff" fill="none" />
    </g>
  </defs>
  <g transform="matrix(1 0 0 1 -315 -251 )">
    <use xlink:href="#widget16" filter="url(#filter15)" />
    <use xlink:href="#widget16" />
  </g>
</svg>