<?xml version="1.0" encoding="utf-8"?>
<svg version="1.1" xmlns:xlink="http://www.w3.org/1999/xlink" width="28px" height="28px" xmlns="http://www.w3.org/2000/svg">
  <defs>
    <filter x="306px" y="182px" width="28px" height="28px" filterUnits="userSpaceOnUse" id="filter37">
      <feOffset dx="1" dy="1" in="SourceAlpha" result="shadowOffsetInner" />
      <feGaussianBlur stdDeviation="2.5" in="shadowOffsetInner" result="shadowGaussian" />
      <feComposite in2="shadowGaussian" operator="atop" in="SourceAlpha" result="shadowComposite" />
      <feColorMatrix type="matrix" values="0 0 0 0 0  0 0 0 0 0  0 0 0 0 0  0 0 0 0.698039215686274 0  " in="shadowComposite" />
    </filter>
    <g id="widget38">
      <path d="M 319 186  C 324.04 186  328 189.96  328 195  C 328 200.04  324.04 204  319 204  C 313.96 204  310 200.04  310 195  C 310 189.96  313.96 186  319 186  Z " fill-rule="nonzero" fill="#dfff58" stroke="none" />
      <path d="M 319 186.5  C 323.76 186.5  327.5 190.24  327.5 195  C 327.5 199.76  323.76 203.5  319 203.5  C 314.24 203.5  310.5 199.76  310.5 195  C 310.5 190.24  314.24 186.5  319 186.5  Z " stroke-width="1" stroke="#ffffff" fill="none" />
    </g>
  </defs>
  <g transform="matrix(1 0 0 1 -306 -182 )">
    <use xlink:href="#widget38" filter="url(#filter37)" />
    <use xlink:href="#widget38" />
  </g>
</svg>