<?xml version="1.0" encoding="utf-8"?>
<svg version="1.1" xmlns:xlink="http://www.w3.org/1999/xlink" width="81px" height="81px" xmlns="http://www.w3.org/2000/svg">
  <defs>
    <filter x="280px" y="268px" width="81px" height="81px" filterUnits="userSpaceOnUse" id="filter29">
      <feOffset dx="1" dy="1" in="SourceAlpha" result="shadowOffsetInner" />
      <feGaussianBlur stdDeviation="2.5" in="shadowOffsetInner" result="shadowGaussian" />
      <feComposite in2="shadowGaussian" operator="atop" in="SourceAlpha" result="shadowComposite" />
      <feColorMatrix type="matrix" values="0 0 0 0 0  0 0 0 0 0  0 0 0 0 0  0 0 0 0.698039215686274 0  " in="shadowComposite" />
    </filter>
    <g id="widget30">
      <path d="M 319.5 272  C 339.38 272  355 287.62  355 307.5  C 355 327.38  339.38 343  319.5 343  C 299.62 343  284 327.38  284 307.5  C 284 287.62  299.62 272  319.5 272  Z " fill-rule="nonzero" fill="#f59a23" stroke="none" />
      <path d="M 319.5 272.5  C 339.1 272.5  354.5 287.9  354.5 307.5  C 354.5 327.1  339.1 342.5  319.5 342.5  C 299.9 342.5  284.5 327.1  284.5 307.5  C 284.5 287.9  299.9 272.5  319.5 272.5  Z " stroke-width="1" stroke="#ffffff" fill="none" />
    </g>
  </defs>
  <g transform="matrix(1 0 0 1 -280 -268 )">
    <use xlink:href="#widget30" filter="url(#filter29)" />
    <use xlink:href="#widget30" />
  </g>
</svg>