<?xml version="1.0" encoding="utf-8"?>
<svg version="1.1" xmlns:xlink="http://www.w3.org/1999/xlink" width="28px" height="28px" xmlns="http://www.w3.org/2000/svg">
  <defs>
    <filter x="315px" y="282px" width="28px" height="28px" filterUnits="userSpaceOnUse" id="filter17">
      <feOffset dx="1" dy="1" in="SourceAlpha" result="shadowOffsetInner" />
      <feGaussianBlur stdDeviation="2.5" in="shadowOffsetInner" result="shadowGaussian" />
      <feComposite in2="shadowGaussian" operator="atop" in="SourceAlpha" result="shadowComposite" />
      <feColorMatrix type="matrix" values="0 0 0 0 0  0 0 0 0 0  0 0 0 0 0  0 0 0 0.698039215686274 0  " in="shadowComposite" />
    </filter>
    <g id="widget18">
      <path d="M 328 286  C 333.04 286  337 289.96  337 295  C 337 300.04  333.04 304  328 304  C 322.96 304  319 300.04  319 295  C 319 289.96  322.96 286  328 286  Z " fill-rule="nonzero" fill="#fffc61" stroke="none" />
      <path d="M 328 286.5  C 332.76 286.5  336.5 290.24  336.5 295  C 336.5 299.76  332.76 303.5  328 303.5  C 323.24 303.5  319.5 299.76  319.5 295  C 319.5 290.24  323.24 286.5  328 286.5  Z " stroke-width="1" stroke="#ffffff" fill="none" />
    </g>
  </defs>
  <g transform="matrix(1 0 0 1 -315 -282 )">
    <use xlink:href="#widget18" filter="url(#filter17)" />
    <use xlink:href="#widget18" />
  </g>
</svg>