<?xml version="1.0" encoding="utf-8"?>
<svg version="1.1" xmlns:xlink="http://www.w3.org/1999/xlink" width="28px" height="28px" xmlns="http://www.w3.org/2000/svg">
  <defs>
    <filter x="1654px" y="470px" width="28px" height="28px" filterUnits="userSpaceOnUse" id="filter25">
      <feOffset dx="1" dy="1" in="SourceAlpha" result="shadowOffsetInner" />
      <feGaussianBlur stdDeviation="2.5" in="shadowOffsetInner" result="shadowGaussian" />
      <feComposite in2="shadowGaussian" operator="atop" in="SourceAlpha" result="shadowComposite" />
      <feColorMatrix type="matrix" values="0 0 0 0 0  0 0 0 0 0  0 0 0 0 0  0 0 0 0.698039215686274 0  " in="shadowComposite" />
    </filter>
    <g id="widget26">
      <path d="M 1667 474  C 1672.04 474  1676 477.96  1676 483  C 1676 488.04  1672.04 492  1667 492  C 1661.96 492  1658 488.04  1658 483  C 1658 477.96  1661.96 474  1667 474  Z " fill-rule="nonzero" fill="#a34d4d" stroke="none" />
      <path d="M 1667 474.5  C 1671.76 474.5  1675.5 478.24  1675.5 483  C 1675.5 487.76  1671.76 491.5  1667 491.5  C 1662.24 491.5  1658.5 487.76  1658.5 483  C 1658.5 478.24  1662.24 474.5  1667 474.5  Z " stroke-width="1" stroke="#ffffff" fill="none" />
    </g>
  </defs>
  <g transform="matrix(1 0 0 1 -1654 -470 )">
    <use xlink:href="#widget26" filter="url(#filter25)" />
    <use xlink:href="#widget26" />
  </g>
</svg>