<?xml version="1.0" encoding="utf-8"?>
<svg version="1.1" xmlns:xlink="http://www.w3.org/1999/xlink" width="28px" height="28px" xmlns="http://www.w3.org/2000/svg">
  <defs>
    <filter x="1795px" y="468px" width="28px" height="28px" filterUnits="userSpaceOnUse" id="filter29">
      <feOffset dx="1" dy="1" in="SourceAlpha" result="shadowOffsetInner" />
      <feGaussianBlur stdDeviation="2.5" in="shadowOffsetInner" result="shadowGaussian" />
      <feComposite in2="shadowGaussian" operator="atop" in="SourceAlpha" result="shadowComposite" />
      <feColorMatrix type="matrix" values="0 0 0 0 0  0 0 0 0 0  0 0 0 0 0  0 0 0 0.698039215686274 0  " in="shadowComposite" />
    </filter>
    <g id="widget30">
      <path d="M 1808 472  C 1813.04 472  1817 475.96  1817 481  C 1817 486.04  1813.04 490  1808 490  C 1802.96 490  1799 486.04  1799 481  C 1799 475.96  1802.96 472  1808 472  Z " fill-rule="nonzero" fill="#70bcd3" stroke="none" />
      <path d="M 1808 472.5  C 1812.76 472.5  1816.5 476.24  1816.5 481  C 1816.5 485.76  1812.76 489.5  1808 489.5  C 1803.24 489.5  1799.5 485.76  1799.5 481  C 1799.5 476.24  1803.24 472.5  1808 472.5  Z " stroke-width="1" stroke="#ffffff" fill="none" />
    </g>
  </defs>
  <g transform="matrix(1 0 0 1 -1795 -468 )">
    <use xlink:href="#widget30" filter="url(#filter29)" />
    <use xlink:href="#widget30" />
  </g>
</svg>